<?xml version="1.0" standalone="no"?><!DOCTYPE svg PUBLIC "-//W3C//DTD SVG 1.1//EN" "http://www.w3.org/Graphics/SVG/1.1/DTD/svg11.dtd"><svg t="1776615070776" class="icon" viewBox="0 0 1024 1024" version="1.1" xmlns="http://www.w3.org/2000/svg" p-id="10364" xmlns:xlink="http://www.w3.org/1999/xlink" width="128" height="128">
  <!-- 圆角背景 -->
  <path d="M716.8 0H307.2C137.5488 0 0 137.5488 0 307.2v409.6c0 169.6512 137.5488 307.2 307.2 307.2h409.6c169.6512 0 307.2-137.5488 307.2-307.2V307.2c0-169.6512-137.5488-307.2-307.2-307.2z" fill="#E8F5E9" />
  
  <!-- Git 图标 -->
  <g transform="translate(512,512) scale(0.7) translate(-512,-512)">
    <path d="M1004.72704 466.4L557.62304 19.328a65.952 65.952 0 0 0-93.28 0L360.47104 123.2l78.176 78.176a96 96 0 0 1 128 128l127.968 127.968a96 96 0 1 1-45.248 45.248l-127.968-127.968a88.832 88.832 0 0 1-9.376 3.872v266.976a96 96 0 1 1-64 0v-266.976a96 96 0 0 1-54.624-131.904L315.22304 168.416 19.31904 464.288a65.952 65.952 0 0 0 0 93.28l447.136 447.072a65.952 65.952 0 0 0 93.28 0l444.992-444.992a65.952 65.952 0 0 0 0-93.28z" p-id="10365" fill="#1f7e2f"></path>
  </g>
</svg>
