<?xml version="1.0" standalone="no"?><!DOCTYPE svg PUBLIC "-//W3C//DTD SVG 1.1//EN" "http://www.w3.org/Graphics/SVG/1.1/DTD/svg11.dtd"><svg t="1775967565616" class="icon" viewBox="0 0 1024 1024" version="1.1" xmlns="http://www.w3.org/2000/svg" p-id="2237" xmlns:xlink="http://www.w3.org/1999/xlink" width="128" height="128"><path d="M687.432674 29.713269c-73.552552-26.878253-148.896988-34.131115-222.065565-27.304892-84.81582 6.698231-126.199797 32.936526-123.725291 28.200833-138.700318 49.490116-255.983361 156.021859-310.251834 305.345486-96.676383 265.966712 40.274715 560.091594 305.814789 656.938633 265.710729 96.847038 559.366308-40.317379 656.085354-306.284092C1090.009174 420.685189 953.058075 126.560307 687.432674 29.713269zM354.696969 944.811121a459.362141 459.362141 0 0 1-79.653489-38.56816c123.725291 9.514048 285.250792-18.985433 394.171712-120.909474 0 0 207.602506-165.877218 57.382937-438.115523 0 0 24.233092 109.731534-6.655568 199.965669 0 0-29.438087 122.744022-160.288248 158.368373-192.712807 52.519253-412.303867-82.341314-504.116565-147.745063-6.911551-67.152968-0.76795-136.524459 23.89178-204.274723 36.477629-100.345478 105.08117-178.676386 188.873057-231.238302-20.905308 146.593138-4.351717 281.581697 19.454735 338.111356 31.955256 75.813739 87.460982 164.25599 195.827271 175.561921 108.36629 11.39126 168.09574-90.020815 168.095741-90.020815 55.633717-84.474509 64.337151-205.767958 63.483873-208.711767-0.853278-2.986473-14.804371-10.964621-14.804371-10.964621-37.416235 151.414158-99.108225 201.970872-99.108224 201.970872-97.273677 93.90323-166.175865 28.798128-166.175866 28.798128-74.064519-79.568161-22.185225-208.839759-22.185224-208.839758 29.011448-88.058276 113.485957-216.903235 209.266397-282.434975 15.956296 3.925078 31.99792 6.399584 47.783561 12.116545a457.015627 457.015627 0 0 1 151.627478 92.15401c-70.011449 25.555672-183.070767 79.568161-183.070767 79.568162-179.231017 75.515092-191.347562 189.683671-191.347563 189.68367-18.558794 117.667018 74.832469 67.835591 74.832469 67.835591 96.079088-46.802291 143.308018-192.670143 143.308019-192.670143-29.992717-5.716962-53.628514 3.413111-53.628514 3.413111-38.35484 94.713844-116.600421 133.623314-116.600421 133.623315-30.803331 16.297607-37.970865-12.500521-37.970866-12.500521-5.204995-21.58793 22.270552-25.257025 22.270553-25.257025 42.663894-16.596255 69.926121-61.393343 76.112386-79.696153 6.143601-18.345474 17.577524-19.796047 17.577524-19.796047a554.545288 554.545288 0 0 1 111.736737-22.825183c72.528619-8.916754 183.582734 25.683664 183.582734 25.683664 24.915714 10.026015 48.807494 17.492196 70.011449 23.507806 40.701354 101.710722 47.143602 217.500529 6.826223 328.51198-86.991679 239.344443-351.379827 362.81375-590.51095 275.69408z" fill="#1296db" p-id="2238"></path></svg>