<?xml version="1.0" standalone="no"?><!DOCTYPE svg PUBLIC "-//W3C//DTD SVG 1.1//EN" "http://www.w3.org/Graphics/SVG/1.1/DTD/svg11.dtd"><svg t="1776614809257" class="icon" viewBox="0 0 1024 1024" version="1.1" xmlns="http://www.w3.org/2000/svg" p-id="7293" xmlns:xlink="http://www.w3.org/1999/xlink" width="128" height="128">
  <!-- 圆角背景 -->
  <path d="M716.8 0H307.2C137.5488 0 0 137.5488 0 307.2v409.6c0 169.6512 137.5488 307.2 307.2 307.2h409.6c169.6512 0 307.2-137.5488 307.2-307.2V307.2c0-169.6512-137.5488-307.2-307.2-307.2z" fill="#FFF3E0" />
  
  <!-- Qt Creator 图标 -->
  <g transform="translate(512,512) scale(0.7) translate(-512,-512)">
    <path d="M873.6 160H188.352L64 286.656V832h771.648L960 705.344V160zM540.8 738.24l-58.496 27.264-50.304-82.912a126.976 126.976 0 0 1-34.624 3.392c-59.04 0-99.936-16-123.2-47.68a256.96 256.96 0 0 1-34.624-150.4 267.232 267.232 0 0 1 35.2-152.736 140.128 140.128 0 0 1 122.656-49.952c58.496 0 98.784 16.48 122.656 49.408a267.232 267.232 0 0 1 35.2 152.736 345.888 345.888 0 0 1-14.464 110.08 124.8 124.8 0 0 1-47.136 64z m187.136-53.44a87.52 87.52 0 0 1-69.376-22.144A134.144 134.144 0 0 1 640 579.2V448h-32v-64h32V288h64v96h64v64h-64v124.8a125.024 125.024 0 0 0 5.376 45.984c3.584 7.392 12.576 11.36 27.52 11.36l49.056-1.696 2.976 49.408a400.608 400.608 0 0 1-60.992 6.944zM397.312 339.648a76.8 76.8 0 0 0-73.248 35.2 245.024 245.024 0 0 0-19.2 112.416 228.192 228.192 0 0 0 19.2 110.144 78.08 78.08 0 0 0 73.792 32.992 77.344 77.344 0 0 0 73.248-32.352 234.976 234.976 0 0 0 18.752-110.144 246.144 246.144 0 0 0-19.2-112.992 76.8 76.8 0 0 0-73.344-35.264z" fill="#FFA351" p-id="7294"></path>
  </g>
</svg>
