<?xml version="1.0" standalone="no"?><!DOCTYPE svg PUBLIC "-//W3C//DTD SVG 1.1//EN" "http://www.w3.org/Graphics/SVG/1.1/DTD/svg11.dtd"><svg t="1775119716906" class="icon" viewBox="0 0 1024 1024" version="1.1" xmlns="http://www.w3.org/2000/svg" p-id="5722" xmlns:xlink="http://www.w3.org/1999/xlink" width="128" height="128">
  <!-- 圆角背景 -->
  <path d="M716.8 0H307.2C137.5488 0 0 137.5488 0 307.2v409.6c0 169.6512 137.5488 307.2 307.2 307.2h409.6c169.6512 0 307.2-137.5488 307.2-307.2V307.2c0-169.6512-137.5488-307.2-307.2-307.2z" fill="#FFEBEE" />
  
  <!-- Debian 图标 -->
  <g transform="translate(512,512) scale(0.7) translate(-512,-512)">
    <path d="M552.106667 1021.866667c-31.146667-8.96-36.266667-5.973333-70.826667-16.64-25.6-11.093333-32.853333-25.6-50.773333-40.106667l7.253333 11.093333c-36.266667-11.093333-21.76-14.506667-50.773333-25.6l7.253333-11.093333c-11.093333 0-29.013333-18.346667-36.266667-29.013333h-11.093333c-11.093333-18.346667-18.346667-32.853333-18.346667-43.52l-3.413333 7.68c-3.413333-7.253333-54.613333-69.12-29.013333-54.613334-3.84-3.84-11.093333-7.253333-18.346667-21.76l3.413333-7.253333c-11.093333-14.506667-21.76-36.266667-21.76-43.946667 7.253333 11.093333 11.093333 11.093333 14.506667 11.093334-32.853333-80.213333-32.853333-3.413333-58.026667-80.213334h3.84c-3.84-7.253333-7.253333-11.093333-11.093333-18.346666l3.413333-21.76c-21.76-25.6-7.253333-112.64-3.413333-160 3.413333-18.346667 18.346667-40.106667 32.853333-72.533334h-7.253333c14.506667-26.026667 87.466667-105.813333 119.893333-102.4 14.506667-18.346667-3.84 0-7.253333-3.413333 36.266667-36.266667 47.36-25.6 69.12-32.853333 25.6-14.506667-21.76 7.253333-11.093333-7.253334 43.52-11.093333 32.853333-25.6 87.466666-32.853333 7.253333 3.84-14.506667 3.84-18.346666 11.093333 36.266667-18.346667 116.48-14.506667 167.253333 11.093334 58.026667 29.013333 127.573333 109.226667 130.986667 189.44h3.84c0 29.013333 3.413333 65.28-7.253334 98.133333l11.093334-14.506667c0 21.76-7.253333 36.266667-14.506667 54.613334l-14.506667 7.253333c-11.093333 21.76 0 11.093333-7.253333 29.013333-14.506667 14.506667-47.36 43.52-58.026667 47.36-7.253333 0 3.413333-7.253333 7.253334-11.093333-21.76 14.506667-18.346667 21.76-51.2 32.853333v-3.84c-79.786667 40.106667-192.853333-36.266667-192.853334-142.08 0 7.253333-3.413333 3.84-3.413333 7.253334-3.84-54.613333 25.6-105.386667 72.533333-127.146667 47.36-25.6 101.973333-18.346667 138.24 14.506667-18.346667-25.6-54.613333-50.773333-98.133333-47.36-43.52 0-83.626667 29.013333-98.133333 58.026666-21.76 14.506667-25.6 54.613333-36.266667 61.866667-14.506667 94.72 25.6 134.826667 87.466667 185.6 11.093333 7.253333 3.84 7.253333 3.84 14.506667-21.333333-10.24-39.68-25.173333-54.613334-43.52 7.253333 11.093333 18.346667 25.6 29.013334 32.853333-17.92-7.253333-47.36-47.36-54.613334-50.773333 32.853333 61.866667 138.24 105.386667 192.853334 83.626666-25.6 0-58.026667 0-87.466667-11.093333-11.093333-7.253333-29.013333-18.346667-25.6-21.76 72.533333 29.013333 152.746667 21.76 214.613333-29.013333 18.346667-14.506667 32.853333-32.853333 40.106667-36.266667-7.253333 11.093333 0 7.253333-3.84 14.506667 14.506667-25.6-7.253333-10.666667 18.346667-47.36l7.253333 11.093333c-3.413333-21.76 25.6-47.36 25.6-83.626667 7.253333-11.093333 7.253333 11.093333 0 36.266667 10.666667-25.6 3.413333-32.853333 3.413333-54.613333 3.413333 7.253333 7.253333 14.506667 7.253334 21.76-3.84-18.346667 11.093333-36.266667 14.506666-51.2-3.413333 0-10.666667 11.093333-10.666666-18.346667 0-14.506667 3.413333-7.253333 3.413333-11.093333-3.413333 0-11.093333-11.093333-14.506667-32.853334 3.413333-3.84 7.253333 11.093333 11.093334 11.093334-3.84-14.506667-7.253333-29.013333-7.253334-40.106667-11.093333-25.6-3.413333 3.84-14.506666-11.093333-14.506667-40.106667 11.093333-11.093333 11.093333-29.013334 18.346667 29.013333 29.013333 72.96 36.266667 90.88-4.266667-22.186667-10.666667-44.373333-18.346667-65.28 7.253333 3.413333-11.093333-43.52 7.253333-14.506666-18.346667-69.12-79.786667-130.986667-134.826666-160 11.093333 11.093333 18.346667 18.346667 18.346666 21.76-29.013333-18.346667-21.76-18.346667-25.6-25.6-21.76-11.093333-25.6 0-40.106666 0-43.52-21.76-50.773333-21.76-90.88-32.853334v7.253334c-29.013333-11.093333-32.853333 3.413333-61.866667 0-3.84 0 11.093333-3.84 18.346667-7.253334-25.6 3.84-25.6-3.413333-50.773334 0l21.76-11.093333c-21.76 0-54.613333 14.506667-43.52 3.84-36.693333 14.933333-102.4 40.533333-135.253333 73.386667v-7.253334c-18.346667 18.346667-72.533333 58.026667-76.373333 83.626667h-3.413334c-14.506667 14.506667-18.346667 32.853333-25.6 47.36-10.666667 18.346667-17.92 7.253333-14.506666 11.093333-21.76 43.52-32.853333 80.213333-43.946667 112.64 7.253333 11.093333 0 61.866667 3.84 101.973334-11.093333 200.106667 142.08 396.8 305.493333 440.32 22.186667 6.4 52.906667 7.253333 79.36 9.813333C265.386667 1041.493333 21.333333 829.44 1.706667 548.266667S193.28 22.613333 474.453333 1.706667c281.173333-20.48 526.08 190.293333 547.84 471.466666 21.333333 281.173333-188.586667 526.506667-470.186666 548.693334z" fill="#b6173c" p-id="5723" data-spm-anchor-id="a313x.search_index.0.i0.55653a8128m03Y" class="selected"></path>
  </g>
</svg>
