<?xml version="1.0" standalone="no"?>
<!DOCTYPE svg PUBLIC "-//W3C//DTD SVG 1.1//EN" "http://www.w3.org/Graphics/SVG/1.1/DTD/svg11.dtd">
<svg t="1776147809271" class="icon" viewBox="0 0 1024 1024" version="1.1" xmlns="http://www.w3.org/2000/svg" p-id="4928" width="128" height="128" xmlns:xlink="http://www.w3.org/1999/xlink">
    <!-- 圆角背景 -->
    <path d="M716.8 0H307.2C137.5488 0 0 137.5488 0 307.2v409.6c0 169.6512 137.5488 307.2 307.2 307.2h409.6c169.6512 0 307.2-137.5488 307.2-307.2V307.2c0-169.6512-137.5488-307.2-307.2-307.2z" fill="#FFEBEB" p-id="4929"/>
    
    <!-- 缩放并居中的图标内容 -->
    <g transform="translate(512, 512) scale(0.7) translate(-512, -512)">
        <path d="M86.784 101.9392m186.2656 0l468.0192 0q186.2656 0 186.2656 186.2656l0 468.0192q0 186.2656-186.2656 186.2656l-468.0192 0q-186.2656 0-186.2656-186.2656l0-468.0192q0-186.2656 186.2656-186.2656Z" fill="#FF5D50" p-id="11041"></path>
        <path d="M588.0832 574.6176l-88.9856 7.1168a38.5024 38.5024 0 0 1-39.9872-40.0384l7.0656-88.9856a33.0752 33.0752 0 0 1 9.3184-20.48l352.256-352.256c13.9264-13.9264 38.144-12.288 54.0672 3.6864L957.44 158.976c15.9232 15.9232 17.5616 40.1408 3.6352 54.0672l-352.256 352.256a32.8192 32.8192 0 0 1-20.736 9.3184zM720.7936 806.912H293.3248a51.2 51.2 0 1 1 0-102.4h427.4688a51.2 51.2 0 0 1 0 102.4z" fill="#FFDF99" p-id="11042"></path>
    </g>
</svg>
