<?xml version="1.0" encoding="UTF-8"?>
<svg width="128" height="128" viewBox="0 0 1024 1024" xmlns="http://www.w3.org/2000/svg">
  <!-- 圆角背景 -->
  <path d="M716.8 0H307.2C137.5488 0 0 137.5488 0 307.2v409.6c0 169.6512 137.5488 307.2 307.2 307.2h409.6c169.6512 0 307.2-137.5488 307.2-307.2V307.2c0-169.6512-137.5488-307.2-307.2-307.2z" fill="#FFEBEE" />
  
  <!-- 配置编辑器图标 -->
  <g transform="translate(512,512) scale(0.7) translate(-512,-512)">
    <!-- 外圆环 -->
    <circle cx="512" cy="512" r="280" fill="none" stroke="#E53935" stroke-width="48" />
    
    <!-- 内圆 -->
    <circle cx="512" cy="512" r="180" fill="#E53935" />
    
    <!-- 设置齿轮形状 -->
    <g fill="#FFEBEE">
      <!-- 齿轮齿 -->
      <rect x="492" y="252" width="40" height="80" rx="8" />
      <rect x="492" y="692" width="40" height="80" rx="8" />
      <rect x="252" y="492" width="80" height="40" rx="8" />
      <rect x="692" y="492" width="80" height="40" rx="8" />
      
      <!-- 对角齿轮齿 -->
      <rect x="340" y="340" width="40" height="80" rx="8" transform="rotate(45 360 380)" />
      <rect x="644" y="340" width="40" height="80" rx="8" transform="rotate(-45 664 380)" />
      <rect x="340" y="604" width="40" height="80" rx="8" transform="rotate(-45 360 644)" />
      <rect x="644" y="604" width="40" height="80" rx="8" transform="rotate(45 664 644)" />
    </g>
    
    <!-- 中心圆点 -->
    <circle cx="512" cy="512" r="60" fill="#FFEBEE" />
    
    <!-- 设置符号 -->
    <circle cx="512" cy="512" r="30" fill="#E53935" />
  </g>
</svg>
