<?xml version="1.0" encoding="UTF-8"?>
<svg width="128" height="128" viewBox="0 0 1024 1024" xmlns="http://www.w3.org/2000/svg">
  <defs>
    <!-- DDE 配置编辑器深红色渐变背景 -->
    <linearGradient id="dconfigGradient" x1="0%" y1="0%" x2="100%" y2="100%">
      <stop offset="0%" style="stop-color:#e53935;stop-opacity:1" />
      <stop offset="100%" style="stop-color:#b71c1c;stop-opacity:1" />
    </linearGradient>
  </defs>
  
  <!-- 圆形背景 -->
  <circle cx="512" cy="512" r="480" fill="url(#dconfigGradient)" />
  
  <!-- 配置编辑器图标 -->
  <g fill="#FFFFFF">
    <!-- 外圆环 -->
    <circle cx="512" cy="512" r="280" fill="none" stroke="#FFFFFF" stroke-width="48" />
    
    <!-- 内圆 -->
    <circle cx="512" cy="512" r="180" fill="#FFFFFF" />
    
    <!-- 设置齿轮形状 -->
    <g fill="#e53935">
      <!-- 齿轮齿 -->
      <rect x="492" y="252" width="40" height="80" rx="8" />
      <rect x="492" y="692" width="40" height="80" rx="8" />
      <rect x="252" y="492" width="80" height="40" rx="8" />
      <rect x="692" y="492" width="80" height="40" rx="8" />
      
      <!-- 对角齿轮齿 -->
      <rect x="340" y="340" width="40" height="80" rx="8" transform="rotate(45 360 380)" />
      <rect x="644" y="340" width="40" height="80" rx="8" transform="rotate(-45 664 380)" />
      <rect x="340" y="604" width="40" height="80" rx="8" transform="rotate(-45 360 644)" />
      <rect x="644" y="604" width="40" height="80" rx="8" transform="rotate(45 664 644)" />
    </g>
    
    <!-- 中心圆点 -->
    <circle cx="512" cy="512" r="60" fill="#FFFFFF" />
    
    <!-- 设置符号 -->
    <circle cx="512" cy="512" r="30" fill="#e53935" />
  </g>
</svg>
