<?xml version="1.0" encoding="UTF-8"?>
<svg width="128" height="128" viewBox="0 0 1024 1024" xmlns="http://www.w3.org/2000/svg">
  <!-- 圆角背景 -->
  <path d="M716.8 0H307.2C137.5488 0 0 137.5488 0 307.2v409.6c0 169.6512 137.5488 307.2 307.2 307.2h409.6c169.6512 0 307.2-137.5488 307.2-307.2V307.2c0-169.6512-137.5488-307.2-307.2-307.2z" fill="#FFF8E1" />
  
  <!-- 集成工具图标 -->
  <g transform="translate(512,512) scale(0.7) translate(-512,-512)" fill="#FFFFFF">
    <!-- 六边形框架 -->
    <path d="M 512 212 L 732 332 L 732 692 L 512 812 L 292 692 L 292 332 Z" fill="none" stroke="#FF9800" stroke-width="32" stroke-linejoin="round" />
    
    <!-- 内部齿轮 -->
    <circle cx="512" cy="512" r="120" fill="none" stroke="#FF9800" stroke-width="32" />
    <circle cx="512" cy="512" r="60" fill="#FF9800" />
    
    <!-- 齿轮齿 -->
    <rect x="492" y="332" width="40" height="80" rx="8" fill="#FF9800" />
    <rect x="492" y="612" width="40" height="80" rx="8" fill="#FF9800" />
    <rect x="332" y="492" width="80" height="40" rx="8" fill="#FF9800" />
    <rect x="612" y="492" width="80" height="40" rx="8" fill="#FF9800" />
    
    <!-- 对角齿轮齿 -->
    <rect x="380" y="380" width="40" height="80" rx="8" transform="rotate(45 400 420)" fill="#FF9800" />
    <rect x="604" y="380" width="40" height="80" rx="8" transform="rotate(-45 624 420)" fill="#FF9800" />
    <rect x="380" y="564" width="40" height="80" rx="8" transform="rotate(-45 400 604)" fill="#FF9800" />
    <rect x="604" y="564" width="40" height="80" rx="8" transform="rotate(45 624 604)" fill="#FF9800" />
    
    <!-- 连接线 -->
    <line x1="512" y1="212" x2="512" y2="332" stroke="#FF9800" stroke-width="24" stroke-linecap="round" />
    <line x1="512" y1="692" x2="512" y2="812" stroke="#FF9800" stroke-width="24" stroke-linecap="round" />
    <line x1="292" y1="512" x2="392" y2="512" stroke="#FF9800" stroke-width="24" stroke-linecap="round" />
    <line x1="632" y1="512" x2="732" y2="512" stroke="#FF9800" stroke-width="24" stroke-linecap="round" />
  </g>
</svg>
