<?xml version="1.0" standalone="no"?>
<!DOCTYPE svg PUBLIC "-//W3C//DTD SVG 1.1//EN" "http://www.w3.org/Graphics/SVG/1.1/DTD/svg11.dtd">
<svg t="1776147809271" class="icon" viewBox="0 0 1024 1024" version="1.1" xmlns="http://www.w3.org/2000/svg" p-id="4928" width="128" height="128" xmlns:xlink="http://www.w3.org/1999/xlink">
    <!-- 圆角背景 -->
    <path d="M716.8 0H307.2C137.5488 0 0 137.5488 0 307.2v409.6c0 169.6512 137.5488 307.2 307.2 307.2h409.6c169.6512 0 307.2-137.5488 307.2-307.2V307.2c0-169.6512-137.5488-307.2-307.2-307.2z" fill="#FFEBEB" p-id="4929"/>
    
    <!-- 缩放并居中的图标内容 -->
    <g transform="translate(512, 512) scale(0.6) translate(-513, -512)">
        <path d="M371.732817 94.172314q25.773475 0 44.112294 17.843175t18.338819 43.616651l0 247.821878q0 25.773475-18.338819 44.112294t-44.112294 18.338819l-247.821878 0q-25.773475 0-43.616651-18.338819t-17.843175-44.112294l0-247.821878q0-25.773475 17.843175-43.616651t43.616651-17.843175l247.821878 0zM371.732817 589.81607q25.773475 0 44.112294 17.843175t18.338819 43.616651l0 248.813166q0 25.773475-18.338819 43.616651t-44.112294 17.843175l-247.821878 0q-25.773475 0-43.616651-17.843175t-17.843175-43.616651l0-248.813166q0-25.773475 17.843175-43.616651t43.616651-17.843175l247.821878 0zM868.367861 589.81607q25.773475 0 43.616651 17.843175t17.843175 43.616651l0 248.813166q0 25.773475-17.843175 43.616651t-43.616651 17.843175l-247.821878 0q-25.773475 0-44.112294-17.843175t-18.338819-43.616651l0-248.813166q0-25.773475 18.338819-43.616651t44.112294-17.843175l247.821878 0zM1006.156825 203.21394q19.82575 19.82575 19.82575 46.590513t-19.82575 45.599226l-184.379477 184.379477q-19.82575 19.82575-46.094869 19.82575t-46.094869-19.82575l-184.379477-184.379477q-18.834463-18.834463-18.834463-45.599226t18.834463-46.590513l184.379477-184.379477q19.82575-18.834463 46.094869-18.834463t46.094869 18.834463z" p-id="14566" data-spm-anchor-id="a313x.search_index.0.i17.85873a81BknM4E" class="" fill="#ccc205"></path>
    </g>
</svg>
